<svg xmlns="http://www.w3.org/2000/svg" width="34" height="34" viewBox="0 0 34 34" fill="none">
<path d="M1.0865 14.2017C2.53516 12.753 4.88391 12.753 6.33258 14.2017C7.78124 15.6504 7.78124 17.9991 6.33258 19.4478C4.88391 20.8964 2.53516 20.8964 1.0865 19.4478C-0.362166 17.9991 -0.362166 15.6504 1.0865 14.2017Z" fill="black"/>
<path d="M14.2017 14.2017C15.6504 12.753 17.9992 12.753 19.4478 14.2017C20.8965 15.6504 20.8965 17.9991 19.4478 19.4478C17.9992 20.8964 15.6504 20.8964 14.2017 19.4478C12.7531 17.9991 12.7531 15.6504 14.2017 14.2017Z" fill="black"/>
<path d="M7.64412 7.6441C9.09279 6.19543 11.4415 6.19543 12.8902 7.6441C14.3389 9.09276 14.3389 11.4415 12.8902 12.8902C11.4415 14.3388 9.09279 14.3388 7.64412 12.8902C6.19546 11.4415 6.19546 9.09276 7.64412 7.6441Z" fill="black"/>
<path d="M20.7594 7.6441C22.208 6.19543 24.5568 6.19543 26.0054 7.6441C27.4541 9.09276 27.4541 11.4415 26.0054 12.8902C24.5568 14.3388 22.208 14.3388 20.7594 12.8902C19.3107 11.4415 19.3107 9.09276 20.7594 7.6441Z" fill="black"/>
<path d="M14.2017 1.0865C15.6504 -0.362166 17.9992 -0.362166 19.4478 1.0865C20.8965 2.53516 20.8965 4.88391 19.4478 6.33258C17.9992 7.78124 15.6504 7.78124 14.2017 6.33258C12.7531 4.88391 12.7531 2.53516 14.2017 1.0865Z" fill="black"/>
<path d="M32.5632 14.2017C34.0119 15.6504 34.0119 17.9991 32.5632 19.4478L26.0056 26.0054C24.557 27.454 22.2082 27.454 20.7596 26.0054C19.3109 24.5567 19.3109 22.208 20.7596 20.7593L27.3172 14.2017C28.7658 12.753 31.1146 12.753 32.5632 14.2017Z" fill="black"/>
<path d="M7.64423 20.7594C9.09289 19.3108 11.4416 19.3108 12.8903 20.7594L19.4479 27.317C20.8966 28.7657 20.8966 31.1144 19.4479 32.5631C17.9992 34.0118 15.6505 34.0118 14.2018 32.5631L7.64423 26.0055C6.19557 24.5568 6.19557 22.2081 7.64423 20.7594Z" fill="black"/>
</svg>